<?xml version="1.0" encoding="UTF-8"?>
<svg id="Layer_2" data-name="Layer 2" xmlns="http://www.w3.org/2000/svg" viewBox="0 0 358.69 245.65">
  <defs>
    <style>
      .cls-1 {
        fill: #687bb5;
      }
    </style>
  </defs>
  <g id="Layer_1-2" data-name="Layer 1">
    <g id="uuid-d3c0a470-67f6-4ae4-b456-0ea6b6c0f72c" data-name="Layer 1-2">
      <g>
        <path class="cls-1" d="M105.91,32.49c-10.1,12.98-17.86,25.46-23.82,36.45.18-.08.38-.16.58-.25,5.58-2.89,11.85-4.65,18.54-4.97,2.12-.1,4.21-.06,6.27.13-1.59,1.88-11.77,13.99-19.62,26.36-5.38,8.49-10.4,18.16-10.4,18.16-.06.12-.11.21-.14.27-3.14-.15-6.3-.15-9.5,0-3.22.16-6.39.47-9.52.92-23.07,3.36-43.4,14.66-58.3,30.92,7.59-24.64,19.49-47.46,34.86-67.55.04-.05.09-.11.13-.17,20.86-26.14,45.06-44.6,66.46-57.42,10.89-6.06,22.38-11.21,34.36-15.34-9.4,8.64-19.72,19.38-29.9,32.48h0Z"/>
        <path class="cls-1" d="M204.92,115.08c-.29,3.02-.7,6.27-1.25,9.76-3.8,24.27-15.25,67.4-56.39,118.61,9.24-21.98,18.27-51.33,20.35-86.46.64-10.82.55-21.01,0-30.46,5.22-2.79,11.97-5.82,20.15-8.14,6.37-1.81,12.19-2.78,17.15-3.3h0Z"/>
        <path class="cls-1" d="M274.21,117.24c-.29,3.02-.7,6.27-1.25,9.76-3.8,24.27-15.25,67.4-56.39,118.61,9.24-21.98,18.27-51.33,20.35-86.46.64-10.82.55-21.01-.01-30.46,5.22-2.79,11.97-5.82,20.15-8.14,6.37-1.81,12.19-2.78,17.15-3.3h0Z"/>
        <path class="cls-1" d="M130.76,117.28c-.29,3.02-.7,6.27-1.25,9.76-3.8,24.27-15.25,67.4-56.39,118.61,9.24-21.98,18.27-51.33,20.35-86.46.64-10.82.55-21.01,0-30.46,5.22-2.79,11.97-5.82,20.15-8.14,6.37-1.81,12.19-2.78,17.15-3.3h0Z"/>
        <path class="cls-1" d="M208.22.54c-9.48,8.56-19.9,19.23-30.2,32.26-10.2,12.9-18.06,25.32-24.11,36.25,4.41-1.86,14.9-5.85,24.83-4.7-8.12,9.39-15.83,19.86-22.81,31.51-2.58,4.3-4.94,8.57-7.1,12.81-3.01-.15-6.05-.17-9.12-.05-26.85,1.09-50.77,12.84-67.81,31.01-.28.22-.55.44-.83.66,7.57-24.04,19.26-46.31,34.25-65.97.03-.03.05-.07.08-.1,1.94-2.44,3.92-4.83,5.92-7.14,20.16-23.33,42.83-40.02,62.94-51.79,10.78-5.84,22.13-10.8,33.95-14.76h0Z"/>
        <path class="cls-1" d="M281.87,3.09c-9.53,8.2-19.98,18.37-30.39,30.8-10.56,12.61-18.77,24.8-25.12,35.56,4.46-1.74,15.06-5.43,24.95-4-8.38,9.16-16.38,19.4-23.69,30.86-2.71,4.24-5.2,8.47-7.49,12.66-3.19-.27-6.41-.39-9.67-.35-26.86.33-51.08,11.4-68.63,29.06,9.61-27.3,24.57-52.1,43.62-73.14.03-.03.06-.07.09-.1,16.88-18.06,35.19-31.79,52.27-42.16.05-.03.1-.06.16-.1,13.73-7.9,28.44-14.34,43.88-19.09h.02Z"/>
        <path class="cls-1" d="M326.81,35.57c-11.02,12.21-19.67,24.09-26.41,34.61,6.18-2.15,23.98-7.52,35.23,1.31,12.91,10.14,8.3,39.63,6.23,50.83-4.01,21.7-16,64.47-59.35,119.73,7.51-18.73,16.53-46.07,21.09-80.25,5.16-38.67-.85-45.17-3.1-47.19-16.06-14.42-59.6,2.56-84.74,19.45-.91.61-1.68,1.14-2.26,1.55,10.86-27.84,27.33-52.81,47.98-73.6.03-.04.06-.07.1-.1,18.36-17.85,37.99-30.98,55.96-40.61,9.94-5.02,20.31-9.28,31.04-12.72,3.33-1.08,6.7-2.07,10.11-2.97-1.87,1.49-3.79,3.05-5.72,4.69-8.34,7.02-17.24,15.38-26.16,25.27Z"/>
      </g>
    </g>
  </g>
</svg>